<svg id="Слой_1" data-name="Слой 1" xmlns="http://www.w3.org/2000/svg" viewBox="0 0 100 12"><defs><style>.cls-1{fill:#59351d;}</style></defs><title>Монтажная область 1</title><path class="cls-1" d="M50.64,6.29A3.43,3.43,0,0,1,50.91,9a2.29,2.29,0,0,1-3.13,1.36,4.14,4.14,0,0,1-2.27-2.57,3.69,3.69,0,0,1-.18-1.15,3.34,3.34,0,0,1,.48-1.75A2.46,2.46,0,0,1,46.73,4c-.06-.16,0-.1,0-.24a6.23,6.23,0,0,0-.82.57A3.84,3.84,0,0,0,45,9.15a3.66,3.66,0,0,0,1.7,1.51,3.41,3.41,0,0,0,1.43.31h0a3.44,3.44,0,0,0,.77-.09,3.83,3.83,0,0,0,2.94-3.74,6.63,6.63,0,0,0-.34-2Z"/><path class="cls-1" d="M53.21,10.64s-.32,0-1.08-.94c-.13-.17-3.75-4.46-3.75-4.46-2-2.21-1.47-3.57-.62-3.75a1.08,1.08,0,0,1,1.31.86,1,1,0,0,1-1.25.95l.68,1a1.58,1.58,0,0,0,1.07-1.83A1.49,1.49,0,0,0,47.8,1.26c-1.24.12-2.32,2-.61,4,.72.86,3.47,4.09,4.06,4.76l.13.18,0,.07a.37.37,0,0,1,.07.12c.07.18-.07.22-.07.22s0,.15.09.15h1.55C53.15,10.78,53.25,10.7,53.21,10.64Z"/><path class="cls-1" d="M73.58,5.71a14.72,14.72,0,0,1-1.39-1.57,2.29,2.29,0,0,1-.42-1.08,1.16,1.16,0,0,1,.52-1.23,1.19,1.19,0,0,1,1.32.36,2.54,2.54,0,0,1,.47.73l.06.16s0,0,.06,0a6.7,6.7,0,0,0,.47-.82c.11-.21.1-.22-.08-.35a2.44,2.44,0,0,0-1.26-.48,1.85,1.85,0,0,0-1.84.89,2.26,2.26,0,0,0-.08,2.35A6.87,6.87,0,0,0,72.5,6.09a14.69,14.69,0,0,1,1.41,1.64,2.44,2.44,0,0,1,.49,1.61,1.38,1.38,0,0,1-.86,1.28A1.44,1.44,0,0,1,72.09,10a2,2,0,0,1-.31-.67c0-.05,0-.15-.07-.22a0,0,0,0,0-.07,0l-.5.85c-.16.26-.17.26.09.49a2.28,2.28,0,0,0,1.55.57,2,2,0,0,0,1-.25,2.45,2.45,0,0,0,1.14-2.69A4.55,4.55,0,0,0,73.58,5.71Z"/><path class="cls-1" d="M92.89,4a4.62,4.62,0,0,0-3.24-2.53,4.55,4.55,0,0,0-3.91,1.07,4.93,4.93,0,0,0-.93,6.15A4.69,4.69,0,0,0,87,10.61a4.31,4.31,0,0,0,2.76.28,4.76,4.76,0,0,0,3.68-4.68A5,5,0,0,0,92.89,4Zm-.56,4.42a3.12,3.12,0,0,1-4.28,1.86A5,5,0,0,1,85.15,7a4.85,4.85,0,0,1-.24-1.53,4,4,0,0,1,.68-2.33,3,3,0,0,1,2.54-1.35A3.43,3.43,0,0,1,89.29,2a4.87,4.87,0,0,1,2.9,2.86A4.62,4.62,0,0,1,92.33,8.44Z"/><path class="cls-1" d="M33.87,5.71a17.32,17.32,0,0,1-1.39-1.57,2.29,2.29,0,0,1-.42-1.08,1,1,0,0,1,1.85-.87,2.51,2.51,0,0,1,.46.73l.07.16a0,0,0,0,0,.05,0A7.73,7.73,0,0,0,35,2.26c.1-.21.09-.22-.09-.35a2.41,2.41,0,0,0-1.26-.48,1.85,1.85,0,0,0-1.84.89,2.26,2.26,0,0,0-.07,2.35A6.54,6.54,0,0,0,32.8,6.09a15.81,15.81,0,0,1,1.41,1.64,2.44,2.44,0,0,1,.48,1.61,1.29,1.29,0,0,1-.89,1.21A1.32,1.32,0,0,1,32.39,10a2.07,2.07,0,0,1-.32-.67A1.36,1.36,0,0,0,32,9.09a0,0,0,0,0-.07,0l-.5.85c-.15.26-.17.26.1.49a2.25,2.25,0,0,0,1.54.57,2.06,2.06,0,0,0,1-.25,2.47,2.47,0,0,0,1.14-2.69A4.64,4.64,0,0,0,33.87,5.71Z"/><path class="cls-1" d="M83.15,9.55V2.94c0-1,.39-1.23.39-1.23a.11.11,0,0,0-.09-.16H82a.11.11,0,0,0-.09.16,1.65,1.65,0,0,1,.37,1.11V9.88a1.14,1.14,0,0,1-.37.84.1.1,0,0,0,.09.15h1.43a.1.1,0,0,0,.09-.15S83.15,10.51,83.15,9.55Z"/><path class="cls-1" d="M12.86,9.55V2.94c0-1,.39-1.23.39-1.23a.11.11,0,0,0-.09-.16H11.78a.11.11,0,0,0-.09.16,1.68,1.68,0,0,1,.36,1.11V9.88a1.15,1.15,0,0,1-.36.84.1.1,0,0,0,.09.15h1.38a.1.1,0,0,0,.09-.15S12.86,10.51,12.86,9.55Z"/><path class="cls-1" d="M80.67,9.68V2.75c0-.82.39-1,.39-1A.11.11,0,0,0,81,1.55H79.54a.11.11,0,0,0-.09.16,1.62,1.62,0,0,1,.38,1V6.86H77.06V2.81c0-.86.39-1.1.39-1.1a.11.11,0,0,0-.09-.16H75.93a.11.11,0,0,0-.09.16,1.47,1.47,0,0,1,.37,1.06V9.84a1.23,1.23,0,0,1-.37.88.1.1,0,0,0,.09.15h1.43a.1.1,0,0,0,.09-.15s-.36-.25-.39-1.11V7.21h2.77V9.75a1.57,1.57,0,0,1-.38,1,.1.1,0,0,0,.09.15H81a.1.1,0,0,0,.09-.15S80.72,10.49,80.67,9.68Z"/><path class="cls-1" d="M99,1.55h-1.4a.11.11,0,0,0-.09.16,1.77,1.77,0,0,1,.37,1V8.33L94.31,1.46V9.65c0,.83-.39,1.06-.39,1.06a.11.11,0,0,0,.09.16h1.43a.11.11,0,0,0,.09-.16s-.35-.24-.39-1.08V4.12L98.65,11V2.74c0-.88.39-1,.39-1A.11.11,0,0,0,99,1.55Z"/><path class="cls-1" d="M24.39,1.55H23a.11.11,0,0,0-.09.16,1.69,1.69,0,0,1,.37,1V8.33L19.74,1.46V9.65c0,.83-.38,1.06-.38,1.06a.1.1,0,0,0,.08.16h1.43a.11.11,0,0,0,.09-.16s-.34-.24-.38-1.08V4.12L24.08,11l0-8.21c0-.88.38-1,.38-1A.11.11,0,0,0,24.39,1.55Z"/><path class="cls-1" d="M70.78,10.72a1.49,1.49,0,0,1-.51-.83L68.41,2.22a.91.91,0,0,1,.29-.51.11.11,0,0,0-.09-.16H67.19a.11.11,0,0,0-.09.16,1,1,0,0,1,.3.51L65.53,9.87a1.48,1.48,0,0,1-.52.85.1.1,0,0,0,.09.15h1.58c.08,0,.16-.15.09-.15s-.63,0-.36-1.21l.51-2.09a1.25,1.25,0,0,1,1-.47,1.23,1.23,0,0,1,1,.47l.57,2.32c.21.94-.41,1-.41,1s0,.15.09.15h1.58A.1.1,0,0,0,70.78,10.72ZM67.89,6.56a1.76,1.76,0,0,0-.81.2l.81-3.35.81,3.35A1.83,1.83,0,0,0,67.89,6.56Z"/><path class="cls-1" d="M10.68,5V4.82c0-1-.54-3.31-4-3.27H6a.11.11,0,0,0-.09.16,1,1,0,0,1,.37.91V9.49h0c0,1-.39,1.24-.39,1.24a.1.1,0,0,0,.09.15h1.4a.1.1,0,0,0,.09-.15s-.38-.26-.39-1.19V8.64L8.9,10.37c.31.36,0,.34,0,.34s0,.16.09.16h1.44a.1.1,0,0,0,.09-.15,6.14,6.14,0,0,1-1.29-1L7.73,8.29A3.43,3.43,0,0,0,10.68,5ZM7.11,1.85a2.89,2.89,0,0,1,2.7,2.94V5a3.08,3.08,0,0,1-2.7,3.06Z"/><path class="cls-1" d="M26.08,1.55H25a.11.11,0,0,0-.09.16s.37.25.39,1.17V9.54c0,.92-.39,1.18-.39,1.18a.1.1,0,0,0,.09.15h1.11a4.41,4.41,0,0,0,4.85-4.54V6C30.94,4.48,30.26,1.5,26.08,1.55Zm4,4.78a4.13,4.13,0,0,1-4,4.24V1.86a3.94,3.94,0,0,1,4,4.14Z"/><path class="cls-1" d="M18.64,10.25a.11.11,0,0,0-.16-.09s-.24.36-1.11.39H15.44V7.2h1.48a1.38,1.38,0,0,1,.95.3A.1.1,0,0,0,18,7.42V6.65a.1.1,0,0,0-.15-.08,1.38,1.38,0,0,1-.88.29H15.44v-5h1.81c1,0,1.23.39,1.23.39a.11.11,0,0,0,.16-.09V1.56h-4v9.33h4Z"/><path class="cls-1" d="M5.32,1.56h-4v9.32H2.41a.11.11,0,0,0,.09-.16,1,1,0,0,1-.38-.89V7.2H3.59a1.35,1.35,0,0,1,1,.3.1.1,0,0,0,.16-.07V6.66a.11.11,0,0,0-.16-.08,1.38,1.38,0,0,1-.88.29H2.12v-5H4c.9,0,1.16.39,1.16.39a.1.1,0,0,0,.15-.09v-.3h0Z"/><path class="cls-1" d="M65.94,1.56H62v9.32H63a.1.1,0,0,0,.08-.16,1,1,0,0,1-.37-.89V7.2h1.47a1.35,1.35,0,0,1,1,.3.1.1,0,0,0,.16-.07V6.66a.11.11,0,0,0-.16-.08,1.38,1.38,0,0,1-.88.29H62.75v-5h1.88c.9,0,1.16.39,1.16.39a.1.1,0,0,0,.15-.09v-.3h0Z"/></svg>
